<?xml version="1.0" encoding="UTF-8" standalone="no"?>
<!-- Created with Inkscape (http://www.inkscape.org/) -->

<svg
   version="1.0"
   width="96"
   height="96"
   id="svg2408"
   sodipodi:docname="icon.svg"
   inkscape:version="1.4.4 (dcaf3e7d9e, 2026-05-05)"
   xmlns:inkscape="http://www.inkscape.org/namespaces/inkscape"
   xmlns:sodipodi="http://sodipodi.sourceforge.net/DTD/sodipodi-0.dtd"
   xmlns:xlink="http://www.w3.org/1999/xlink"
   xmlns="http://www.w3.org/2000/svg"
   xmlns:svg="http://www.w3.org/2000/svg"
   xmlns:rdf="http://www.w3.org/1999/02/22-rdf-syntax-ns#"
   xmlns:cc="http://creativecommons.org/ns#"
   xmlns:dc="http://purl.org/dc/elements/1.1/">
  <sodipodi:namedview
     id="namedview24059"
     pagecolor="#ffffff"
     bordercolor="#000000"
     borderopacity="0.25"
     inkscape:showpageshadow="2"
     inkscape:pageopacity="0.0"
     inkscape:pagecheckerboard="0"
     inkscape:deskcolor="#d1d1d1"
     showgrid="false"
     inkscape:zoom="5.3489583"
     inkscape:cx="23.462512"
     inkscape:cy="35.14703"
     inkscape:current-layer="svg2408"
     inkscape:window-width="2047"
     inkscape:window-height="1210"
     inkscape:window-x="1403"
     inkscape:window-y="1590"
     inkscape:window-maximized="0" />
  <defs
     id="defs2410">
    <linearGradient
       id="linearGradient4"
       inkscape:collect="always">
      <stop
         style="stop-color:#e8e9d7;stop-opacity:1;"
         offset="0"
         id="stop4" />
      <stop
         style="stop-color:#cfcea3;stop-opacity:1;"
         offset="1"
         id="stop5" />
    </linearGradient>
    <linearGradient
       id="linearGradient2"
       inkscape:collect="always">
      <stop
         style="stop-color:#ffffff;stop-opacity:1;"
         offset="0"
         id="stop2" />
      <stop
         style="stop-color:#ffffff;stop-opacity:0;"
         offset="1"
         id="stop3" />
    </linearGradient>
    <linearGradient
       id="linearGradient3729">
      <stop
         id="stop3731"
         style="stop-color:#1c59ad;stop-opacity:1"
         offset="0" />
      <stop
         id="stop3733"
         style="stop-color:#377ad6;stop-opacity:1"
         offset="1" />
    </linearGradient>
    <linearGradient
       x1="45.447727"
       y1="92.539597"
       x2="45.447727"
       y2="7.0165396"
       id="ButtonShadow"
       gradientUnits="userSpaceOnUse"
       gradientTransform="scale(1.0058652,0.994169)">
      <stop
         id="stop3750"
         style="stop-color:#000000;stop-opacity:1"
         offset="0" />
      <stop
         id="stop3752"
         style="stop-color:#000000;stop-opacity:0.58823532"
         offset="1" />
    </linearGradient>
    <linearGradient
       id="linearGradient3737">
      <stop
         id="stop3739"
         style="stop-color:#ffffff;stop-opacity:1"
         offset="0" />
      <stop
         id="stop3741"
         style="stop-color:#ffffff;stop-opacity:0"
         offset="1" />
    </linearGradient>
    <linearGradient
       id="linearGradient3700">
      <stop
         id="stop3702"
         style="stop-color:#e6e6e6;stop-opacity:1"
         offset="0" />
      <stop
         id="stop3704"
         style="stop-color:#f5f5f5;stop-opacity:1"
         offset="1" />
    </linearGradient>
    <linearGradient
       x1="48"
       y1="90"
       x2="48"
       y2="5.9877172"
       id="linearGradient3706"
       xlink:href="#linearGradient3700"
       gradientUnits="userSpaceOnUse" />
    <filter
       color-interpolation-filters="sRGB"
       id="filter3174"
       x="-0.047720931"
       y="-0.048282354"
       width="1.0954419"
       height="1.0965647">
      <feGaussianBlur
         stdDeviation="1.71"
         id="feGaussianBlur3176" />
    </filter>
    <linearGradient
       x1="36.357143"
       y1="6"
       x2="36.357143"
       y2="63.893143"
       id="linearGradient3188"
       xlink:href="#linearGradient3737"
       gradientUnits="userSpaceOnUse" />
    <linearGradient
       x1="45.447727"
       y1="92.539597"
       x2="45.447727"
       y2="7.0165396"
       id="ButtonShadow-0"
       gradientUnits="userSpaceOnUse"
       gradientTransform="matrix(1.0058652,0,0,0.994169,100,0)">
      <stop
         id="stop3750-8"
         style="stop-color:#000000;stop-opacity:1"
         offset="0" />
      <stop
         id="stop3752-5"
         style="stop-color:#000000;stop-opacity:0.58823532"
         offset="1" />
    </linearGradient>
    <linearGradient
       x1="32.251034"
       y1="6.1317081"
       x2="32.251034"
       y2="90.238609"
       id="linearGradient3780"
       xlink:href="#ButtonShadow-0"
       gradientUnits="userSpaceOnUse"
       gradientTransform="matrix(1.0238095,0,0,1.0119048,-1.1428571,-98.071429)" />
    <linearGradient
       x1="32.251034"
       y1="6.1317081"
       x2="32.251034"
       y2="90.238609"
       id="linearGradient3772"
       xlink:href="#ButtonShadow-0"
       gradientUnits="userSpaceOnUse"
       gradientTransform="matrix(1.0238095,0,0,1.0119048,-1.1428571,-98.071429)" />
    <linearGradient
       x1="32.251034"
       y1="6.1317081"
       x2="32.251034"
       y2="90.238609"
       id="linearGradient3725"
       xlink:href="#ButtonShadow-0"
       gradientUnits="userSpaceOnUse"
       gradientTransform="matrix(1.0238095,0,0,1.0119048,-1.1428571,-98.071429)" />
    <linearGradient
       x1="32.251034"
       y1="6.1317081"
       x2="32.251034"
       y2="90.238609"
       id="linearGradient3721"
       xlink:href="#ButtonShadow-0"
       gradientUnits="userSpaceOnUse"
       gradientTransform="translate(0,-97)" />
    <linearGradient
       x1="32.251034"
       y1="6.1317081"
       x2="32.251034"
       y2="90.238609"
       id="linearGradient3760"
       xlink:href="#ButtonShadow-0"
       gradientUnits="userSpaceOnUse"
       gradientTransform="matrix(1.0238095,0,0,1.0119048,-1.1428571,-98.071429)" />
    <linearGradient
       id="linearGradient3737-0">
      <stop
         id="stop3739-6"
         style="stop-color:#ffffff;stop-opacity:1"
         offset="0" />
      <stop
         id="stop3741-0"
         style="stop-color:#ffffff;stop-opacity:0"
         offset="1" />
    </linearGradient>
    <radialGradient
       cx="48"
       cy="90.171875"
       r="42"
       fx="48"
       fy="90.171875"
       id="radialGradient2903"
       xlink:href="#linearGradient3737-0"
       gradientUnits="userSpaceOnUse"
       gradientTransform="matrix(1.1573129,0,0,0.99590774,-7.551021,0.1971319)" />
    <clipPath
       id="clipPath3782">
      <path
         d="m -98,6 c -3.324,0 -6,2.676 -6,6 l 0,72 c 0,3.324 2.676,6 6,6 l 72,0 c 3.324,0 6,-2.676 6,-6 l 0,-72 c 0,-3.324 -2.676,-6 -6,-6 l -72,0 z m 59.0625,12 C -38.336494,17.9909 -38,18.03125 -38,18.03125 l 0,12.0625 C -50.051065,30.305506 -53,42.0625 -53,42.0625 l 9.0625,0 0,12.0625 -14.09375,0 C -66.507844,80.276885 -86,77.9375 -86,77.9375 l 0,-12.0625 c 0,0 12.376145,2.298313 18.6875,-20.75 6.908061,-25.227422 24.167961,-27.061294 28.375,-27.125 z"
         inkscape:connector-curvature="0"
         id="path3784"
         style="fill:#ff00ff;fill-opacity:1;fill-rule:nonzero;stroke:none" />
    </clipPath>
    <filter
       x="-0.18283333"
       y="-0.14622227"
       width="1.3656667"
       height="1.2924143"
       color-interpolation-filters="sRGB"
       id="filter3786">
      <feGaussianBlur
         id="feGaussianBlur3788"
         stdDeviation="3.24" />
    </filter>
    <linearGradient
       x1="46.906918"
       y1="75.471306"
       x2="46.906918"
       y2="36.246487"
       id="linearGradient3745"
       xlink:href="#linearGradient3729"
       gradientUnits="userSpaceOnUse"
       gradientTransform="translate(-2)" />
    <linearGradient
       id="linearGradient3737-9">
      <stop
         id="stop3739-2"
         style="stop-color:#ffffff;stop-opacity:1"
         offset="0" />
      <stop
         id="stop3741-1"
         style="stop-color:#ffffff;stop-opacity:0"
         offset="1" />
    </linearGradient>
    <clipPath
       id="clipPath3613">
      <rect
         width="84"
         height="84"
         rx="6"
         ry="6"
         x="6"
         y="6"
         id="rect3615"
         style="fill:#ffffff;fill-opacity:1;fill-rule:nonzero;stroke:none" />
    </clipPath>
    <filter
       x="-0.19578789"
       y="-0.19578789"
       width="1.3915758"
       height="1.3915758"
       color-interpolation-filters="sRGB"
       id="filter3794">
      <feGaussianBlur
         id="feGaussianBlur3796"
         stdDeviation="5.28" />
    </filter>
    <linearGradient
       x1="48"
       y1="20.220806"
       x2="48"
       y2="138.66119"
       id="linearGradient4186"
       xlink:href="#linearGradient3737-9"
       gradientUnits="userSpaceOnUse" />
    <linearGradient
       id="linearGradient2660">
      <stop
         style="stop-color:#edeeec;stop-opacity:1;"
         offset="0"
         id="stop2662" />
      <stop
         style="stop-color:#babdb6;stop-opacity:1;"
         offset="1"
         id="stop2664" />
    </linearGradient>
    <linearGradient
       id="linearGradient15653">
      <stop
         style="stop-color:#f0f1ee;stop-opacity:1;"
         offset="0"
         id="stop15655" />
      <stop
         style="stop-color:#d5d9d1;stop-opacity:1;"
         offset="1"
         id="stop15657" />
    </linearGradient>
    <linearGradient
       x1="48"
       y1="90"
       x2="48"
       y2="5.9877172"
       id="linearGradient3989"
       xlink:href="#ButtonShadow"
       gradientUnits="userSpaceOnUse"
       gradientTransform="translate(0,1)" />
    <linearGradient
       x1="48"
       y1="90"
       x2="48"
       y2="5.9877172"
       id="linearGradient3948"
       xlink:href="#ButtonColor"
       gradientUnits="userSpaceOnUse" />
    <linearGradient
       x1="10.31979"
       y1="21"
       x2="10.31979"
       y2="0.99929649"
       id="ButtonColor"
       gradientUnits="userSpaceOnUse">
      <stop
         id="stop3189"
         style="stop-color:#67ae4f;stop-opacity:1;"
         offset="0" />
      <stop
         id="stop3191"
         style="stop-color:#9dbd74;stop-opacity:1;"
         offset="1" />
    </linearGradient>
    <linearGradient
       x1="44"
       y1="6"
       x2="44"
       y2="64.215118"
       id="linearGradient3967"
       xlink:href="#linearGradient3737"
       gradientUnits="userSpaceOnUse" />
    <radialGradient
       cx="48"
       cy="72"
       r="42"
       fx="48"
       fy="72"
       id="radialGradient3982"
       xlink:href="#linearGradient3737"
       gradientUnits="userSpaceOnUse"
       gradientTransform="matrix(1.1428571,0,0,0.95238095,-6.8571426,3.428571)" />
    <clipPath
       id="clipPath3613-1">
      <rect
         width="84"
         height="84"
         rx="6"
         ry="6"
         x="6"
         y="6"
         id="rect3615-9"
         style="fill:#ffffff;fill-opacity:1;fill-rule:nonzero;stroke:none" />
    </clipPath>
    <filter
       x="-0.19849745"
       y="-0.19849745"
       width="1.3969949"
       height="1.3969949"
       color-interpolation-filters="sRGB"
       id="filter4055">
      <feGaussianBlur
         id="feGaussianBlur4057"
         stdDeviation="5.3379019" />
    </filter>
    <clipPath
       clipPathUnits="userSpaceOnUse"
       id="clipPath9">
      <path
         d="m -210.83417,-24.178806 c -3.31502,0 -5.98379,2.676 -5.98379,6 v 56 c 0,3.324 2.66877,6 5.98379,6 h 11.96756 l -2.99189,16 22.93782,-16 h 39.89186 c 3.31501,0 5.98378,-2.676 5.98378,-6 v -56 c 0,-3.324 -2.66877,-6 -5.98378,-6 z"
         inkscape:connector-curvature="0"
         id="path9"
         style="fill:#000000;fill-opacity:1;fill-rule:nonzero;stroke:none;stroke-width:0.998647" />
    </clipPath>
    <clipPath
       clipPathUnits="userSpaceOnUse"
       id="clipPath7">
      <path
         d="m 12.210884,14.723018 c -3.3150184,0 -5.9837839,2.676 -5.9837839,6 v 56 c 0,3.324 2.6687655,6 5.9837839,6 h 11.967559 l -2.99189,16 22.93782,-16 h 39.891861 c 3.315014,0 5.98378,-2.676 5.98378,-6 v -56 c 0,-3.324 -2.668766,-6 -5.98378,-6 z"
         inkscape:connector-curvature="0"
         id="path7"
         style="fill:#000000;fill-opacity:1;fill-rule:nonzero;stroke:none;stroke-width:0.998647" />
    </clipPath>
    <clipPath
       clipPathUnits="userSpaceOnUse"
       id="clipPath15">
      <path
         d="m 12.179718,14.602616 c -3.3150279,0 -5.9837934,2.591005 -5.9837934,5.809428 v 54.221318 c 0,3.218422 2.6687655,5.809427 5.9837934,5.809427 h 11.967558 l -2.991889,15.491805 22.93782,-15.491805 h 39.891861 c 3.315013,0 5.983779,-2.591005 5.983779,-5.809427 V 20.412044 c 0,-3.218423 -2.668766,-5.809428 -5.983779,-5.809428 z"
         inkscape:connector-curvature="0"
         id="path16"
         style="display:inline;fill:#000000;fill-opacity:1;fill-rule:nonzero;stroke:none;stroke-width:0.98266" />
    </clipPath>
    <clipPath
       clipPathUnits="userSpaceOnUse"
       id="clipPath14">
      <path
         d="m 12.179718,14.754268 c -3.3150279,0 -5.9837934,2.676 -5.9837934,6.000001 v 55.999999 c 0,3.324 2.6687655,6 5.9837934,6 h 11.967558 l -2.991889,16 22.93782,-16 h 39.891861 c 3.315013,0 5.983779,-2.676 5.983779,-6 V 20.754269 c 0,-3.324001 -2.668766,-6.000001 -5.983779,-6.000001 z"
         inkscape:connector-curvature="0"
         id="path15"
         style="display:inline;fill:#000000;fill-opacity:1;fill-rule:nonzero;stroke:none;stroke-width:0.998647" />
    </clipPath>
    <clipPath
       clipPathUnits="userSpaceOnUse"
       id="clipPath11">
      <path
         d="m 12.210895,14.671454 c -3.3150194,0 -5.9837849,2.713382 -5.9837849,6.083816 v 56.782278 c 0,3.370434 2.6687655,6.083816 5.9837849,6.083816 h 11.967559 l -2.99189,16.223508 22.93782,-16.223508 h 39.891861 c 3.315014,0 5.983779,-2.713382 5.983779,-6.083816 V 20.75527 c 0,-3.370434 -2.668765,-6.083816 -5.983779,-6.083816 z"
         inkscape:connector-curvature="0"
         id="path14"
         style="fill:#000000;fill-opacity:1;fill-rule:nonzero;stroke:none;stroke-width:1.0056" />
    </clipPath>
    <clipPath
       clipPathUnits="userSpaceOnUse"
       id="clipPath5">
      <path
         d="m -210.83418,-24.178806 c -3.31501,0 -5.98378,2.676 -5.98378,6 v 56 c 0,3.324 2.66877,6 5.98378,6 h 11.96756 l -2.99189,16 22.93782,-16 h 39.89186 c 3.31502,0 5.98378,-2.676 5.98378,-6 v -56 c 0,-3.324 -2.66876,-6 -5.98378,-6 z"
         inkscape:connector-curvature="0"
         id="path6"
         style="fill:#000000;fill-opacity:1;fill-rule:nonzero;stroke:none;stroke-width:0.998647" />
    </clipPath>
    <clipPath
       clipPathUnits="userSpaceOnUse"
       id="clipPath16">
      <path
         d="m 12.17972,14.754268 c -3.3150199,0 -5.9837754,2.676 -5.9837754,6 v 56 c 0,3.324 2.6687555,6 5.9837754,6 h 11.96756 l -2.99189,16 22.93782,-16 h 39.89186 c 3.31501,0 5.98378,-2.676 5.98378,-6 v -56 c 0,-3.324 -2.66877,-6 -5.98378,-6 z"
         inkscape:connector-curvature="0"
         id="path17"
         style="display:inline;fill:#000000;fill-opacity:1;fill-rule:nonzero;stroke:none;stroke-width:0.998647" />
    </clipPath>
    <linearGradient
       id="linearGradient3697">
      <stop
         id="stop3699"
         style="stop-color:#f0f0f0;stop-opacity:1;"
         offset="0" />
      <stop
         id="stop3701"
         style="stop-color:#f5f5f5;stop-opacity:1"
         offset="1" />
    </linearGradient>
    <linearGradient
       inkscape:collect="always"
       xlink:href="#linearGradient2"
       id="linearGradient3"
       x1="-35.14703"
       y1="-11.030186"
       x2="-35.14703"
       y2="27.481987"
       gradientUnits="userSpaceOnUse"
       gradientTransform="translate(83.380721,26.173321)" />
    <filter
       inkscape:collect="always"
       style="color-interpolation-filters:sRGB"
       id="filter3"
       x="-0.030838917"
       y="-0.04033651"
       width="1.0616778"
       height="1.080673">
      <feGaussianBlur
         inkscape:collect="always"
         stdDeviation="1.0642036"
         id="feGaussianBlur3" />
    </filter>
    <radialGradient
       inkscape:collect="always"
       xlink:href="#linearGradient4"
       id="radialGradient5"
       cx="49.477566"
       cy="55.531193"
       fx="49.477566"
       fy="55.531193"
       r="41.410155"
       gradientTransform="matrix(1.8106884,0,0,0.87364641,-38.572024,4.2993708)"
       gradientUnits="userSpaceOnUse" />
  </defs>
  <metadata
     id="metadata2413">
    <rdf:RDF>
      <cc:Work
         rdf:about="">
        <dc:format>image/svg+xml</dc:format>
        <dc:type
           rdf:resource="http://purl.org/dc/dcmitype/StillImage" />
      </cc:Work>
    </rdf:RDF>
  </metadata>
  <path
     id="path3"
     style="opacity:0.602306;mix-blend-mode:normal;fill:#000000;fill-opacity:1;stroke:none;stroke-width:0.4;stroke-linejoin:round;filter:url(#filter3)"
     d="M 47.766295,14.208064 C 24.895808,14.207978 6.3556809,27.433189 6.3561455,43.747126 c 4.33e-5,9.550594 6.4735835,18.511833 17.3769495,24.054688 -1.05738,6.495969 -0.388392,5.805292 -7.217187,9.311771 -0.07511,-0.005 10.241757,2.42222 22.992577,-4.421146 2.717782,0.394681 5.484277,0.593596 8.25781,0.59375 22.870492,9e-5 41.410625,-13.225122 41.41016,-29.539063 4.65e-4,-16.31394 -18.539669,-29.539152 -41.41016,-29.539062 z"
     sodipodi:nodetypes="cccccccc"
     transform="matrix(1.0255142,0,0,1.045412,-1.031768,-0.90313424)" />
  <path
     id="path1"
     style="fill:url(#radialGradient5);stroke:none;stroke-width:0.4;stroke-linejoin:round;fill-opacity:1"
     d="M 47.766295,14.208064 C 24.895808,14.207978 6.3556809,27.433189 6.3561455,43.747126 c 4.33e-5,9.550594 6.4735835,18.511833 17.3769495,24.054688 -1.05738,6.495969 -1.573349,7.772435 -8.402144,11.278914 -0.07511,-0.005 11.426714,0.455077 24.177534,-6.388289 2.717782,0.394681 5.484277,0.593596 8.25781,0.59375 22.870492,9e-5 41.410625,-13.225122 41.41016,-29.539063 4.65e-4,-16.31394 -18.539669,-29.539152 -41.41016,-29.539062 z"
     sodipodi:nodetypes="cccccccc" />
  <ellipse
     style="fill:url(#linearGradient3);stroke:none;stroke-width:0.4;stroke-linejoin:round"
     id="path2"
     cx="47.510117"
     cy="34.773125"
     rx="32.366982"
     ry="20.003895" />
</svg>
